{
  "accessors": [
    {
      "bufferView": 2,
      "componentType": 5126,
      "count": 65532,
      "max": [
        75.20337677001953,
        60.249813079833984,
        177.05645751953125
      ],
      "min": [
        -101.93218231201172,
        -75.46236419677734,
        -245.155517578125
      ],
      "type": "VEC3"
    },
    {
      "bufferView": 2,
      "byteOffset": 786384,
      "componentType": 5126,
      "count": 65532,
      "max": [
        1.0,
        1.0,
        1.0
      ],
      "min": [
        -1.0,
        -1.0,
        -0.9999996423721313
      ],
      "type": "VEC3"
    },
    {
      "bufferView": 3,
      "componentType": 5126,
      "count": 65532,
      "max": [
        1.0,
        1.0,
        1.0,
        1.0
      ],
      "min": [
        -1.0,
        -1.0,
        -1.0,
        -1.0
      ],
      "type": "VEC4"
    },
    {
      "bufferView": 1,
      "componentType": 5126,
      "count": 65532,
      "max": [
        0.9974084496498108,
        0.9962830543518066
      ],
      "min": [
        0.0015915513504296541,
        0.0015832618810236454
      ],
      "type": "VEC2"
    },
    {
      "bufferView": 1,
      "byteOffset": 524256,
      "componentType": 5126,
      "count": 65532,
      "max": [
        0.9974084496498108,
        0.9962830543518066
      ],
      "min": [
        0.0015915513504296541,
        0.0015832618810236454
      ],
      "type": "VEC2"
    },
    {
      "bufferView": 1,
      "byteOffset": 1048512,
      "componentType": 5126,
      "count": 65532,
      "max": [
        0.9974084496498108,
        0.9962830543518066
      ],
      "min": [
        0.0015915513504296541,
        0.0015832618810236454
      ],
      "type": "VEC2"
    },
    {
      "bufferView": 1,
      "byteOffset": 1572768,
      "componentType": 5126,
      "count": 65532,
      "max": [
        0.9974084496498108,
        0.9962830543518066
      ],
      "min": [
        0.0015915513504296541,
        0.0015832618810236454
      ],
      "type": "VEC2"
    },
    {
      "bufferView": 0,
      "componentType": 5125,
      "count": 266133,
      "type": "SCALAR"
    },
    {
      "bufferView": 2,
      "byteOffset": 1572768,
      "componentType": 5126,
      "count": 65532,
      "max": [
        101.08894348144531,
        60.24942398071289,
        177.05645751953125
      ],
      "min": [
        -101.93218231201172,
        -75.74470520019531,
        -245.82667541503906
      ],
      "type": "VEC3"
    },
    {
      "bufferView": 2,
      "byteOffset": 2359152,
      "componentType": 5126,
      "count": 65532,
      "max": [
        1.0,
        1.0,
        1.0
      ],
      "min": [
        -1.0,
        -1.0,
        -0.9999996423721313
      ],
      "type": "VEC3"
    },
    {
      "bufferView": 3,
      "byteOffset": 1048512,
      "componentType": 5126,
      "count": 65532,
      "max": [
        1.0,
        1.0,
        1.0,
        1.0
      ],
      "min": [
        -1.0,
        -1.0,
        -1.0,
        -1.0
      ],
      "type": "VEC4"
    },
    {
      "bufferView": 1,
      "byteOffset": 2097024,
      "componentType": 5126,
      "count": 65532,
      "max": [
        0.9829652309417725,
        0.9962894320487976
      ],
      "min": [
        0.0015763342380523682,
        0.0015814404468983412
      ],
      "type": "VEC2"
    },
    {
      "bufferView": 1,
      "byteOffset": 2621280,
      "componentType": 5126,
      "count": 65532,
      "max": [
        0.9829652309417725,
        0.9962894320487976
      ],
      "min": [
        0.0015763342380523682,
        0.0015814404468983412
      ],
      "type": "VEC2"
    },
    {
      "bufferView": 1,
      "byteOffset": 3145536,
      "componentType": 5126,
      "count": 65532,
      "max": [
        0.9829652309417725,
        0.9962894320487976
      ],
      "min": [
        0.0015763342380523682,
        0.0015814404468983412
      ],
      "type": "VEC2"
    },
    {
      "bufferView": 1,
      "byteOffset": 3669792,
      "componentType": 5126,
      "count": 65532,
      "max": [
        0.9829652309417725,
        0.9962894320487976
      ],
      "min": [
        0.0015763342380523682,
        0.0015814404468983412
      ],
      "type": "VEC2"
    },
    {
      "bufferView": 0,
      "byteOffset": 1064532,
      "componentType": 5125,
      "count": 262317,
      "type": "SCALAR"
    },
    {
      "bufferView": 2,
      "byteOffset": 3145536,
      "componentType": 5126,
      "count": 65532,
      "max": [
        101.5208511352539,
        60.24980545043945,
        177.05645751953125
      ],
      "min": [
        -101.02611541748047,
        -75.51133728027344,
        -245.87049865722656
      ],
      "type": "VEC3"
    },
    {
      "bufferView": 2,
      "byteOffset": 3931920,
      "componentType": 5126,
      "count": 65532,
      "max": [
        1.0,
        1.0,
        1.0
      ],
      "min": [
        -1.0,
        -1.0,
        -1.0
      ],
      "type": "VEC3"
    },
    {
      "bufferView": 3,
      "byteOffset": 2097024,
      "componentType": 5126,
      "count": 65532,
      "max": [
        1.0,
        1.0,
        1.0,
        1.0
      ],
      "min": [
        -1.0,
        -1.0,
        -1.0,
        -1.0
      ],
      "type": "VEC4"
    },
    {
      "bufferView": 1,
      "byteOffset": 4194048,
      "componentType": 5126,
      "count": 65532,
      "max": [
        0.9970875382423401,
        0.9962892532348633
      ],
      "min": [
        0.0015696337213739753,
        0.0015723062679171562
      ],
      "type": "VEC2"
    },
    {
      "bufferView": 1,
      "byteOffset": 4718304,
      "componentType": 5126,
      "count": 65532,
      "max": [
        0.9970875382423401,
        0.9962892532348633
      ],
      "min": [
        0.0015696337213739753,
        0.0015723062679171562
      ],
      "type": "VEC2"
    },
    {
      "bufferView": 1,
      "byteOffset": 5242560,
      "componentType": 5126,
      "count": 65532,
      "max": [
        0.9970875382423401,
        0.9962892532348633
      ],
      "min": [
        0.0015696337213739753,
        0.0015723062679171562
      ],
      "type": "VEC2"
    },
    {
      "bufferView": 1,
      "byteOffset": 5766816,
      "componentType": 5126,
      "count": 65532,
      "max": [
        0.9970875382423401,
        0.9962892532348633
      ],
      "min": [
        0.0015696337213739753,
        0.0015723062679171562
      ],
      "type": "VEC2"
    },
    {
      "bufferView": 0,
      "byteOffset": 2113800,
      "componentType": 5125,
      "count": 253347,
      "type": "SCALAR"
    },
    {
      "bufferView": 2,
      "byteOffset": 4718304,
      "componentType": 5126,
      "count": 65532,
      "max": [
        101.39997100830078,
        60.24970245361328,
        177.05645751953125
      ],
      "min": [
        -102.09199523925781,
        -75.72689819335938,
        -245.54336547851563
      ],
      "type": "VEC3"
    },
    {
      "bufferView": 2,
      "byteOffset": 5504688,
      "componentType": 5126,
      "count": 65532,
      "max": [
        1.0,
        1.0,
        1.0
      ],
      "min": [
        -1.0,
        -1.0,
        -1.0
      ],
      "type": "VEC3"
    },
    {
      "bufferView": 3,
      "byteOffset": 3145536,
      "componentType": 5126,
      "count": 65532,
      "max": [
        1.0,
        1.0,
        1.0,
        1.0
      ],
      "min": [
        -1.0,
        -1.0,
        -1.0,
        -1.0
      ],
      "type": "VEC4"
    },
    {
      "bufferView": 1,
      "byteOffset": 6291072,
      "componentType": 5126,
      "count": 65532,
      "max": [
        0.9979404807090759,
        0.9971073269844055
      ],
      "min": [
        0.0015727579593658447,
        0.001570243388414383
      ],
      "type": "VEC2"
    },
    {
      "bufferView": 1,
      "byteOffset": 6815328,
      "componentType": 5126,
      "count": 65532,
      "max": [
        0.9979404807090759,
        0.9971073269844055
      ],
      "min": [
        0.0015727579593658447,
        0.001570243388414383
      ],
      "type": "VEC2"
    },
    {
      "bufferView": 1,
      "byteOffset": 7339584,
      "componentType": 5126,
      "count": 65532,
      "max": [
        0.9979404807090759,
        0.9971073269844055
      ],
      "min": [
        0.0015727579593658447,
        0.001570243388414383
      ],
      "type": "VEC2"
    },
    {
      "bufferView": 1,
      "byteOffset": 7863840,
      "componentType": 5126,
      "count": 65532,
      "max": [
        0.9979404807090759,
        0.9971073269844055
      ],
      "min": [
        0.0015727579593658447,
        0.001570243388414383
      ],
      "type": "VEC2"
    },
    {
      "bufferView": 0,
      "byteOffset": 3127188,
      "componentType": 5125,
      "count": 222918,
      "type": "SCALAR"
    },
    {
      "bufferView": 2,
      "byteOffset": 6291072,
      "componentType": 5126,
      "count": 48149,
      "max": [
        100.86260986328125,
        60.24980545043945,
        177.05645751953125
      ],
      "min": [
        -101.47916412353516,
        -75.72689819335938,
        -245.67591857910156
      ],
      "type": "VEC3"
    },
    {
      "bufferView": 2,
      "byteOffset": 6868860,
      "componentType": 5126,
      "count": 48149,
      "max": [
        0.9999999403953552,
        1.0,
        1.0
      ],
      "min": [
        -1.0,
        -1.0,
        -0.9999990463256836
      ],
      "type": "VEC3"
    },
    {
      "bufferView": 3,
      "byteOffset": 4194048,
      "componentType": 5126,
      "count": 48149,
      "max": [
        1.0,
        1.0,
        1.0,
        1.0
      ],
      "min": [
        -1.0,
        -1.0,
        -1.0,
        -1.0
      ],
      "type": "VEC4"
    },
    {
      "bufferView": 1,
      "byteOffset": 8388096,
      "componentType": 5126,
      "count": 48149,
      "max": [
        0.9984299540519714,
        0.9971186518669128
      ],
      "min": [
        0.0015687859850004315,
        0.0015694387257099152
      ],
      "type": "VEC2"
    },
    {
      "bufferView": 1,
      "byteOffset": 8773288,
      "componentType": 5126,
      "count": 48149,
      "max": [
        0.9984299540519714,
        0.9971186518669128
      ],
      "min": [
        0.0015687859850004315,
        0.0015694387257099152
      ],
      "type": "VEC2"
    },
    {
      "bufferView": 1,
      "byteOffset": 9158480,
      "componentType": 5126,
      "count": 48149,
      "max": [
        0.9984299540519714,
        0.9971186518669128
      ],
      "min": [
        0.0015687859850004315,
        0.0015694387257099152
      ],
      "type": "VEC2"
    },
    {
      "bufferView": 1,
      "byteOffset": 9543672,
      "componentType": 5126,
      "count": 48149,
      "max": [
        0.9984299540519714,
        0.9971186518669128
      ],
      "min": [
        0.0015687859850004315,
        0.0015694387257099152
      ],
      "type": "VEC2"
    },
    {
      "bufferView": 0,
      "byteOffset": 4018860,
      "componentType": 5125,
      "count": 80583,
      "type": "SCALAR"
    }
  ],
  "asset": {
    "extras": {
      "author": "JazOone (https://sketchfab.com/JazOone)",
      "license": "CC-BY-4.0 (http://creativecommons.org/licenses/by/4.0/)",
      "source": "https://sketchfab.com/3d-models/spaceship-8dc6c42edd9e4ddeb9283bd5f47701fc",
      "title": "SpaceShip"
    },
    "generator": "Sketchfab-15.30.0",
    "version": "2.0"
  },
  "bufferViews": [
    {
      "buffer": 0,
      "byteLength": 4341192,
      "name": "floatBufferViews",
      "target": 34963
    },
    {
      "buffer": 0,
      "byteLength": 9928864,
      "byteOffset": 4341192,
      "byteStride": 8,
      "name": "floatBufferViews",
      "target": 34962
    },
    {
      "buffer": 0,
      "byteLength": 7446648,
      "byteOffset": 14270056,
      "byteStride": 12,
      "name": "floatBufferViews",
      "target": 34962
    },
    {
      "buffer": 0,
      "byteLength": 4964432,
      "byteOffset": 21716704,
      "byteStride": 16,
      "name": "floatBufferViews",
      "target": 34962
    }
  ],
  "buffers": [
    {
      "byteLength": 26681136,
      "uri": "scene.bin"
    }
  ],
  "extensionsUsed": [
    "KHR_materials_emissive_strength"
  ],
  "images": [
    {
      "uri": "textures/Material_baseColor.png"
    },
    {
      "uri": "textures/Material_metallicRoughness.png"
    },
    {
      "uri": "textures/Material_emissive.png"
    },
    {
      "uri": "textures/Material_normal.png"
    }
  ],
  "materials": [
    {
      "doubleSided": true,
      "emissiveFactor": [
        1.0,
        1.0,
        1.0
      ],
      "emissiveTexture": {
        "index": 2
      },
      "extensions": {
        "KHR_materials_emissive_strength": {
          "emissiveStrength": 10.0
        }
      },
      "name": "Material",
      "normalTexture": {
        "index": 3
      },
      "pbrMetallicRoughness": {
        "baseColorTexture": {
          "index": 0
        },
        "metallicRoughnessTexture": {
          "index": 1
        }
      }
    }
  ],
  "meshes": [
    {
      "name": "Layer_1_Material_0",
      "primitives": [
        {
          "attributes": {
            "NORMAL": 1,
            "POSITION": 0,
            "TANGENT": 2,
            "TEXCOORD_0": 3,
            "TEXCOORD_1": 4,
            "TEXCOORD_2": 5,
            "TEXCOORD_3": 6
          },
          "indices": 7,
          "material": 0,
          "mode": 4
        }
      ]
    },
    {
      "name": "Layer_1_Material_0",
      "primitives": [
        {
          "attributes": {
            "NORMAL": 9,
            "POSITION": 8,
            "TANGENT": 10,
            "TEXCOORD_0": 11,
            "TEXCOORD_1": 12,
            "TEXCOORD_2": 13,
            "TEXCOORD_3": 14
          },
          "indices": 15,
          "material": 0,
          "mode": 4
        }
      ]
    },
    {
      "name": "Layer_1_Material_0",
      "primitives": [
        {
          "attributes": {
            "NORMAL": 17,
            "POSITION": 16,
            "TANGENT": 18,
            "TEXCOORD_0": 19,
            "TEXCOORD_1": 20,
            "TEXCOORD_2": 21,
            "TEXCOORD_3": 22
          },
          "indices": 23,
          "material": 0,
          "mode": 4
        }
      ]
    },
    {
      "name": "Layer_1_Material_0",
      "primitives": [
        {
          "attributes": {
            "NORMAL": 25,
            "POSITION": 24,
            "TANGENT": 26,
            "TEXCOORD_0": 27,
            "TEXCOORD_1": 28,
            "TEXCOORD_2": 29,
            "TEXCOORD_3": 30
          },
          "indices": 31,
          "material": 0,
          "mode": 4
        }
      ]
    },
    {
      "name": "Layer_1_Material_0",
      "primitives": [
        {
          "attributes": {
            "NORMAL": 33,
            "POSITION": 32,
            "TANGENT": 34,
            "TEXCOORD_0": 35,
            "TEXCOORD_1": 36,
            "TEXCOORD_2": 37,
            "TEXCOORD_3": 38
          },
          "indices": 39,
          "material": 0,
          "mode": 4
        }
      ]
    }
  ],
  "nodes": [
    {
      "children": [
        1
      ],
      "matrix": [
        2.4809566095882474,
        -1.0583467403144198,
        0.20466650141632825,
        0.0,
        0.13960095949603346,
        -0.19381217920240107,
        -2.694453551659848,
        0.0,
        1.0688768658090098,
        2.4818280671379256,
        -0.12313898732023654,
        0.0,
        0.0,
        0.0,
        0.0,
        1.0
      ],
      "name": "Sketchfab_model"
    },
    {
      "children": [
        2
      ],
      "matrix": [
        0.009999999776482582,
        0.0,
        0.0,
        0.0,
        0.0,
        0.0,
        0.009999999776482582,
        0.0,
        0.0,
        -0.009999999776482582,
        0.0,
        0.0,
        0.0,
        0.0,
        0.0,
        1.0
      ],
      "name": "SpaceShip.fbx"
    },
    {
      "children": [
        3
      ],
      "name": "RootNode"
    },
    {
      "children": [
        4,
        5,
        6,
        7,
        8
      ],
      "matrix": [
        0.9999999999999981,
        1.4901166522918148e-08,
        5.960465188081794e-08,
        0.0,
        -1.4901164746560905e-08,
        0.9999999999999994,
        -2.980232594040894e-08,
        0.0,
        -5.960465232490734e-08,
        2.980232505223015e-08,
        0.9999999999999978,
        0.0,
        -7.603060112160165e-06,
        -2.1701221466064453,
        28.935218811035156,
        1.0
      ],
      "name": "Layer_1"
    },
    {
      "mesh": 0,
      "name": "Layer_1_Material_0"
    },
    {
      "mesh": 1,
      "name": "Layer_1_Material_0"
    },
    {
      "mesh": 2,
      "name": "Layer_1_Material_0"
    },
    {
      "mesh": 3,
      "name": "Layer_1_Material_0"
    },
    {
      "mesh": 4,
      "name": "Layer_1_Material_0"
    }
  ],
  "samplers": [
    {
      "magFilter": 9729,
      "minFilter": 9987,
      "wrapS": 10497,
      "wrapT": 10497
    }
  ],
  "scene": 0,
  "scenes": [
    {
      "name": "Sketchfab_Scene",
      "nodes": [
        0
      ]
    }
  ],
  "textures": [
    {
      "sampler": 0,
      "source": 0
    },
    {
      "sampler": 0,
      "source": 1
    },
    {
      "sampler": 0,
      "source": 2
    },
    {
      "sampler": 0,
      "source": 3
    }
  ]
}
