{
  "accessors": [
    {
      "bufferView": 2,
      "componentType": 5126,
      "count": 10374,
      "max": [
        0.0918559655547142,
        0.10541138052940369,
        0.13999393582344055
      ],
      "min": [
        -0.13691575825214386,
        -0.08979231119155884,
        -0.02801627665758133
      ],
      "type": "VEC3"
    },
    {
      "bufferView": 2,
      "byteOffset": 124488,
      "componentType": 5126,
      "count": 10374,
      "max": [
        1.0,
        1.0,
        1.0
      ],
      "min": [
        -1.0,
        -1.0,
        -1.0
      ],
      "type": "VEC3"
    },
    {
      "bufferView": 3,
      "componentType": 5126,
      "count": 10374,
      "max": [
        0.9999203085899353,
        0.999972403049469,
        0.999514102935791,
        1.0
      ],
      "min": [
        -1.0,
        -0.9991632699966431,
        -0.9999921321868896,
        -1.0
      ],
      "type": "VEC4"
    },
    {
      "bufferView": 1,
      "componentType": 5126,
      "count": 10374,
      "max": [
        0.8062439560890198,
        0.8122770190238953
      ],
      "min": [
        0.00038038220372982323,
        0.00038038220372982323
      ],
      "type": "VEC2"
    },
    {
      "bufferView": 0,
      "componentType": 5125,
      "count": 58764,
      "type": "SCALAR"
    },
    {
      "bufferView": 2,
      "byteOffset": 248976,
      "componentType": 5126,
      "count": 4842,
      "max": [
        0.12614715099334717,
        0.11335615813732147,
        0.06248912960290909
      ],
      "min": [
        -0.03151898458600044,
        -0.09773711860179901,
        -0.06883865594863892
      ],
      "type": "VEC3"
    },
    {
      "bufferView": 2,
      "byteOffset": 307080,
      "componentType": 5126,
      "count": 4842,
      "max": [
        1.0,
        1.0,
        1.0
      ],
      "min": [
        -1.0,
        -1.0,
        -1.0
      ],
      "type": "VEC3"
    },
    {
      "bufferView": 3,
      "byteOffset": 165984,
      "componentType": 5126,
      "count": 4842,
      "max": [
        0.9997255802154541,
        0.9991078972816467,
        0.9997530579566956,
        1.0
      ],
      "min": [
        -0.9999639391899109,
        -0.9990838170051575,
        -0.9960496425628662,
        -1.0
      ],
      "type": "VEC4"
    },
    {
      "bufferView": 1,
      "byteOffset": 82992,
      "componentType": 5126,
      "count": 4842,
      "max": [
        0.985755205154419,
        0.977881669998169
      ],
      "min": [
        0.00038038220372982323,
        0.00038038220372982323
      ],
      "type": "VEC2"
    },
    {
      "bufferView": 0,
      "byteOffset": 235056,
      "componentType": 5125,
      "count": 23520,
      "type": "SCALAR"
    },
    {
      "bufferView": 2,
      "byteOffset": 365184,
      "componentType": 5126,
      "count": 610,
      "max": [
        0.11650820076465607,
        0.10411041975021362,
        0.037989355623722076
      ],
      "min": [
        0.04387292265892029,
        -0.08849140256643295,
        -0.007842551916837692
      ],
      "type": "VEC3"
    },
    {
      "bufferView": 2,
      "byteOffset": 372504,
      "componentType": 5126,
      "count": 610,
      "max": [
        0.9986228942871094,
        0.9785350561141968,
        0.9840202927589417
      ],
      "min": [
        -0.9980942010879517,
        -0.9785350561141968,
        -0.9852396845817566
      ],
      "type": "VEC3"
    },
    {
      "bufferView": 3,
      "byteOffset": 243456,
      "componentType": 5126,
      "count": 610,
      "max": [
        0.99970543384552,
        0.8559277653694153,
        0.9986656904220581,
        1.0
      ],
      "min": [
        -0.9796231389045715,
        -0.8414284586906433,
        -0.9986228942871094,
        1.0
      ],
      "type": "VEC4"
    },
    {
      "bufferView": 1,
      "byteOffset": 121728,
      "componentType": 5126,
      "count": 610,
      "max": [
        0.9996196627616882,
        0.9659070372581482
      ],
      "min": [
        0.3537517786026001,
        0.3439626693725586
      ],
      "type": "VEC2"
    },
    {
      "bufferView": 0,
      "byteOffset": 329136,
      "componentType": 5125,
      "count": 2832,
      "type": "SCALAR"
    }
  ],
  "asset": {
    "extras": {
      "author": "NikolasAntonio (https://sketchfab.com/NikolasAntonio)",
      "license": "CC-BY-4.0 (http://creativecommons.org/licenses/by/4.0/)",
      "source": "https://sketchfab.com/3d-models/pubg-level-3-helmet-85dd813ac17149deb7b80e7e79905423",
      "title": "PUBG Level 3 Helmet"
    },
    "generator": "Sketchfab-12.65.0",
    "version": "2.0"
  },
  "bufferViews": [
    {
      "buffer": 0,
      "byteLength": 340464,
      "name": "floatBufferViews",
      "target": 34963
    },
    {
      "buffer": 0,
      "byteLength": 126608,
      "byteOffset": 340464,
      "byteStride": 8,
      "name": "floatBufferViews",
      "target": 34962
    },
    {
      "buffer": 0,
      "byteLength": 379824,
      "byteOffset": 467072,
      "byteStride": 12,
      "name": "floatBufferViews",
      "target": 34962
    },
    {
      "buffer": 0,
      "byteLength": 253216,
      "byteOffset": 846896,
      "byteStride": 16,
      "name": "floatBufferViews",
      "target": 34962
    }
  ],
  "buffers": [
    {
      "byteLength": 1100112,
      "uri": "scene.bin"
    }
  ],
  "images": [
    {
      "uri": "textures/TT_checker_2048x2048_UV_GRID_baseColor.png"
    },
    {
      "uri": "textures/TT_checker_2048x2048_UV_GRID_metallicRoughness.png"
    },
    {
      "uri": "textures/TT_checker_2048x2048_UV_GRID_normal.png"
    }
  ],
  "materials": [
    {
      "alphaMode": "BLEND",
      "doubleSided": true,
      "name": "TT_checker_2048x2048_UV_GRID",
      "normalTexture": {
        "index": 2
      },
      "pbrMetallicRoughness": {
        "baseColorTexture": {
          "index": 0
        },
        "metallicRoughnessTexture": {
          "index": 1
        }
      }
    }
  ],
  "meshes": [
    {
      "name": "1_low_TT_checker_2048x2048_UV_GRID_0",
      "primitives": [
        {
          "attributes": {
            "NORMAL": 1,
            "POSITION": 0,
            "TANGENT": 2,
            "TEXCOORD_0": 3
          },
          "indices": 4,
          "material": 0,
          "mode": 4
        }
      ]
    },
    {
      "name": "2_low_TT_checker_2048x2048_UV_GRID_0",
      "primitives": [
        {
          "attributes": {
            "NORMAL": 6,
            "POSITION": 5,
            "TANGENT": 7,
            "TEXCOORD_0": 8
          },
          "indices": 9,
          "material": 0,
          "mode": 4
        }
      ]
    },
    {
      "name": "3_low_TT_checker_2048x2048_UV_GRID_0",
      "primitives": [
        {
          "attributes": {
            "NORMAL": 11,
            "POSITION": 10,
            "TANGENT": 12,
            "TEXCOORD_0": 13
          },
          "indices": 14,
          "material": 0,
          "mode": 4
        }
      ]
    }
  ],
  "nodes": [
    {
      "children": [
        1
      ],
      "matrix": [
        1.0,
        0.0,
        0.0,
        0.0,
        0.0,
        2.220446049250313e-16,
        -1.0,
        0.0,
        0.0,
        1.0,
        2.220446049250313e-16,
        0.0,
        0.0,
        0.0,
        0.0,
        1.0
      ],
      "name": "Sketchfab_model"
    },
    {
      "children": [
        2
      ],
      "matrix": [
        1.0,
        0.0,
        0.0,
        0.0,
        0.0,
        0.0,
        1.0,
        0.0,
        0.0,
        -1.0,
        0.0,
        0.0,
        0.0,
        0.0,
        0.0,
        1.0
      ],
      "name": "e47fb78455374a0985a7c0f98178d95f.fbx"
    },
    {
      "children": [
        3,
        5,
        7
      ],
      "name": "RootNode"
    },
    {
      "children": [
        4
      ],
      "matrix": [
        100.0,
        0.0,
        0.0,
        0.0,
        0.0,
        -1.629206793918314e-05,
        -99.99999999999868,
        0.0,
        0.0,
        99.99999999999868,
        -1.629206793918314e-05,
        0.0,
        0.0,
        0.0,
        0.0,
        1.0
      ],
      "name": "1_low"
    },
    {
      "mesh": 0,
      "name": "1_low_TT_checker_2048x2048_UV_GRID_0"
    },
    {
      "children": [
        6
      ],
      "matrix": [
        100.0,
        0.0,
        0.0,
        0.0,
        0.0,
        -1.629206793918314e-05,
        -99.99999999999868,
        0.0,
        0.0,
        99.99999999999868,
        -1.629206793918314e-05,
        0.0,
        0.0,
        0.0,
        0.0,
        1.0
      ],
      "name": "2_low"
    },
    {
      "mesh": 1,
      "name": "2_low_TT_checker_2048x2048_UV_GRID_0"
    },
    {
      "children": [
        8
      ],
      "matrix": [
        100.0,
        0.0,
        0.0,
        0.0,
        0.0,
        -1.629206793918314e-05,
        -99.99999999999868,
        0.0,
        0.0,
        99.99999999999868,
        -1.629206793918314e-05,
        0.0,
        0.0,
        0.0,
        0.0,
        1.0
      ],
      "name": "3_low"
    },
    {
      "mesh": 2,
      "name": "3_low_TT_checker_2048x2048_UV_GRID_0"
    }
  ],
  "samplers": [
    {
      "magFilter": 9729,
      "minFilter": 9987,
      "wrapS": 10497,
      "wrapT": 10497
    }
  ],
  "scene": 0,
  "scenes": [
    {
      "name": "Sketchfab_Scene",
      "nodes": [
        0
      ]
    }
  ],
  "textures": [
    {
      "sampler": 0,
      "source": 0
    },
    {
      "sampler": 0,
      "source": 1
    },
    {
      "sampler": 0,
      "source": 2
    }
  ]
}
